<svg xmlns="http://www.w3.org/2000/svg" xmlns:xlink="http://www.w3.org/1999/xlink" xmlns:lucid="lucid" width="1760" height="1360"><g transform="translate(0 0)" lucid:page-tab-id="0_0"><path d="M192 314c0 14.36-35.82 26-80 26s-80-11.64-80-26V106c0-14.36 35.82-26 80-26s80 11.64 80 26z" stroke="#000" stroke-width="2" fill="#fff"/><path d="M192 106c0 14.36-35.82 26-80 26s-80-11.64-80-26" stroke="#000" stroke-width="2" fill="none"/><use xlink:href="#a" transform="matrix(1,0,0,1,37,137) translate(41.074999999999996 70.19999999999999)"/><use xlink:href="#b" transform="matrix(1,0,0,1,37,137) translate(69.025 70.19999999999999)"/><use xlink:href="#c" transform="matrix(1,0,0,1,37,137) translate(30.549999999999997 91.8)"/><use xlink:href="#d" transform="matrix(1,0,0,1,37,137) translate(24.574999999999996 113.4)"/><use xlink:href="#e" transform="matrix(1,0,0,1,37,137) translate(75 135)"/><path d="M260 80h126v102c-21.04-17.03-34.15-17.03-42.08-17.03-12.6 0-29.36 17.03-41.96 17.03-7.8 0-21.04 0-41.96-17.03z" stroke="#000" stroke-width="2" fill="#fff"/><path d="M267 89h126v102c-21.04-17.03-34.15-17.03-42.08-17.03-12.6 0-29.36 17.03-41.96 17.03-7.8 0-21.04 0-41.96-17.03z" stroke="#000" stroke-width="2" fill="#fff"/><path d="M274 98h126v102c-21.04-17.03-34.15-17.03-42.08-17.03-12.6 0-29.36 17.03-41.96 17.03-7.8 0-21.04 0-41.96-17.03z" stroke="#000" stroke-width="2" fill="#fff"/><use xlink:href="#f" transform="matrix(1,0,0,1,279,103) translate(29 30.299999999999997)"/><use xlink:href="#g" transform="matrix(1,0,0,1,279,103) translate(31.025 51.9)"/><path d="M480 170h120l40 40-40 40H480l-40-40z" stroke="#000" stroke-width="2" fill="#fff"/><use xlink:href="#h" transform="matrix(1,0,0,1,445,175) translate(27.125 27.799999999999997)"/><use xlink:href="#i" transform="matrix(1,0,0,1,445,175) translate(17.64999999999999 49.4)"/><use xlink:href="#j" transform="matrix(1,0,0,1,445,175) translate(71.55 49.4)"/><use xlink:href="#k" transform="matrix(1,0,0,1,445,175) translate(115.45 49.4)"/><path d="M260 220h126v102c-21.04-17.03-34.15-17.03-42.08-17.03-12.6 0-29.36 17.03-41.96 17.03-7.8 0-21.04 0-41.96-17.03z" stroke="#000" stroke-width="2" fill="#fff"/><path d="M267 229h126v102c-21.04-17.03-34.15-17.03-42.08-17.03-12.6 0-29.36 17.03-41.96 17.03-7.8 0-21.04 0-41.96-17.03z" stroke="#000" stroke-width="2" fill="#fff"/><path d="M274 238h126v102c-21.04-17.03-34.15-17.03-42.08-17.03-12.6 0-29.36 17.03-41.96 17.03-7.8 0-21.04 0-41.96-17.03z" stroke="#000" stroke-width="2" fill="#fff"/><use xlink:href="#l" transform="matrix(1,0,0,1,279,243) translate(24.674999999999997 30.299999999999997)"/><use xlink:href="#m" transform="matrix(1,0,0,1,279,243) translate(10.524999999999999 51.9)"/><path d="M981.62 50c-12.16 0-22 13.43-22 30s9.84 30 22 30h-198c-12.16 0-22-13.43-22-30s9.84-30 22-30z" stroke="#000" stroke-width="2" fill="#fff"/><use xlink:href="#i" transform="matrix(1,0,0,1,766.6152179999998,55) translate(30.625 17.799999999999997)"/><use xlink:href="#j" transform="matrix(1,0,0,1,766.6152179999998,55) translate(84.525 17.799999999999997)"/><use xlink:href="#n" transform="matrix(1,0,0,1,766.6152179999998,55) translate(128.425 17.799999999999997)"/><use xlink:href="#o" transform="matrix(1,0,0,1,766.6152179999998,55) translate(43.599999999999994 39.4)"/><use xlink:href="#p" transform="matrix(1,0,0,1,766.6152179999998,55) translate(98.5 39.4)"/><path d="M981.62 180c-12.16 0-22 13.43-22 30s9.84 30 22 30h-198c-12.16 0-22-13.43-22-30s9.84-30 22-30z" stroke="#000" stroke-width="2" fill="#fff"/><use xlink:href="#i" transform="matrix(1,0,0,1,766.6152179999998,185) translate(30.625 17.799999999999997)"/><use xlink:href="#j" transform="matrix(1,0,0,1,766.6152179999998,185) translate(84.525 17.799999999999997)"/><use xlink:href="#q" transform="matrix(1,0,0,1,766.6152179999998,185) translate(128.425 17.799999999999997)"/><use xlink:href="#r" transform="matrix(1,0,0,1,766.6152179999998,185) translate(81 39.4)"/><path d="M981.62 260c-12.16 0-22 13.43-22 30s9.84 30 22 30h-198c-12.16 0-22-13.43-22-30s9.84-30 22-30z" stroke="#000" stroke-width="2" fill="#fff"/><use xlink:href="#i" transform="matrix(1,0,0,1,766.6152179999998,265) translate(30.625 17.799999999999997)"/><use xlink:href="#j" transform="matrix(1,0,0,1,766.6152179999998,265) translate(84.525 17.799999999999997)"/><use xlink:href="#q" transform="matrix(1,0,0,1,766.6152179999998,265) translate(128.425 17.799999999999997)"/><use xlink:href="#s" transform="matrix(1,0,0,1,766.6152179999998,265) translate(80 39.4)"/><path d="M981.62 340c-12.16 0-22 13.43-22 30s9.84 30 22 30h-198c-12.16 0-22-13.43-22-30s9.84-30 22-30z" stroke="#000" stroke-width="2" fill="#fff"/><use xlink:href="#i" transform="matrix(1,0,0,1,766.6152179999998,345) translate(30.625 17.799999999999997)"/><use xlink:href="#j" transform="matrix(1,0,0,1,766.6152179999998,345) translate(84.525 17.799999999999997)"/><use xlink:href="#q" transform="matrix(1,0,0,1,766.6152179999998,345) translate(128.425 17.799999999999997)"/><use xlink:href="#t" transform="matrix(1,0,0,1,766.6152179999998,345) translate(66.55 39.4)"/><path d="M112 79V39h218v21.76" stroke="#000" stroke-width="2" fill="none"/><path d="M113 80.03l-1-.03h-1v-1h2zM330 75.76l-4.64-14.26h9.28z"/><path d="M330 79l-6-18.5h12zm-3.26-16.5L330 72.53l3.26-10.03z"/><path d="M112 341v40h218v-26.7" stroke="#000" stroke-width="2" fill="none"/><path d="M112 340h1v1h-2v-1.03zM334.64 353.57h-9.28L330 339.3z"/><path d="M336 354.57h-12l6-18.5zm-9.26-2h6.52L330 342.54z"/><path d="M641.4 210H701V80h41.38" stroke="#000" stroke-width="2" fill="none"/><path d="M641.4 211H639l1-1-1-1h2.4zM757.38 80l-14.27 4.64v-9.28z"/><path d="M760.6 80l-18.5 6V74zm-16.5 3.26L754.15 80l-10.03-3.26z"/><path d="M641.4 210H701v160h41.38" stroke="#000" stroke-width="2" fill="none"/><path d="M641.4 211H639l1-1-1-1h2.4zM757.38 370l-14.27 4.64v-9.28z"/><path d="M760.6 370l-18.5 6v-12zm-16.5 3.26l10.04-3.26-10.03-3.26z"/><path d="M701 290.85h29.8V290h11.58" stroke="#000" stroke-width="2" fill="none"/><path d="M757.38 290l-14.27 4.64v-9.28z"/><path d="M760.6 290l-18.5 6v-12zm-16.5 3.26l10.04-3.26-10.03-3.26z"/><path d="M679.28 210h63.1" stroke="#000" stroke-width="2" fill="none"/><path d="M757.38 210l-14.27 4.64v-9.28z"/><path d="M760.6 210l-18.5 6v-12zm-16.5 3.26l10.04-3.26-10.03-3.26z"/><path d="M586 79.5c0 26.23-20.6 47.5-46 47.5s-46-21.27-46-47.5S514.6 32 540 32s46 21.27 46 47.5z" stroke="#000" stroke-width="2" fill="#fff"/><use xlink:href="#u" transform="matrix(1,0,0,1,499,37) translate(-1.4500000000000028 46.1)"/><path d="M586 337.5c0 26.23-20.6 47.5-46 47.5s-46-21.27-46-47.5 20.6-47.5 46-47.5 46 21.27 46 47.5z" stroke="#000" stroke-width="2" fill="#fff"/><use xlink:href="#v" transform="matrix(1,0,0,1,499,295) translate(1.1000000000000014 46.1)"/><path d="M401 341.95h73.98" stroke="#000" stroke-width="2" fill="none"/><path d="M401 342.95h-3v-2h3zM489.98 341.95l-14.27 4.64v-9.28z"/><path d="M493.2 341.95l-18.5 6.02v-12.03zm-16.5 3.26l10.04-3.25-10.03-3.25z"/><path d="M540 289v-19.76" stroke="#000" stroke-width="2" fill="none"/><path d="M541 290.05l-1-.05-1 .05V289h2zM544.64 268.5h-9.28l4.64-14.26z"/><path d="M546 269.5h-12l6-18.5zm-9.26-2h6.52L540 257.47z"/><path d="M540 128v22.76" stroke="#000" stroke-width="2" fill="none"/><path d="M540 127l1-.05V128h-2v-1.05zM540 165.76l-4.64-14.26h9.28z"/><path d="M540 169l-6-18.5h12zm-3.26-16.5l3.26 10.03 3.26-10.03z"/><path d="M387 79h87.8" stroke="#000" stroke-width="2" fill="none"/><path d="M387 80h-3v-2h3zM489.8 79l-14.28 4.64v-9.28z"/><path d="M493.02 79l-18.5 6V73zm-16.5 3.26L486.55 79l-10.03-3.26z"/><path d="M1081.62 200h160v180h-160z" stroke="#000" stroke-width="2" fill="#fff"/><path d="M1097.62 200v180m128-180v180" stroke="#000" stroke-width="2" fill="none"/><use xlink:href="#w" transform="matrix(1,0,0,1,1106.6152179999995,205) translate(6.549999999999997 45.39999999999999)"/><use xlink:href="#x" transform="matrix(1,0,0,1,1106.6152179999995,205) translate(39.05 67)"/><use xlink:href="#y" transform="matrix(1,0,0,1,1106.6152179999995,205) translate(31.549999999999997 88.6)"/><use xlink:href="#z" transform="matrix(1,0,0,1,1106.6152179999995,205) translate(24.025 110.20000000000002)"/><use xlink:href="#A" transform="matrix(1,0,0,1,1106.6152179999995,205) translate(6.099999999999994 131.8)"/><use xlink:href="#B" transform="matrix(1,0,0,1,1106.6152179999995,205) translate(61.05 131.8)"/><path d="M960.62 80h141.94" stroke="#000" stroke-width="2" fill="none"/><path d="M960.62 81h-.92l-.08-1 .03-1h.97zM1117.56 80l-14.26 4.64v-9.28z"/><path d="M1120.8 80l-18.5 6V74zm-16.5 3.26l10.03-3.26-10.03-3.26z"/><path d="M960.62 210h60v80h41.76" stroke="#000" stroke-width="2" fill="none"/><path d="M960.62 211h-.92l-.08-1 .03-1h.97zM1077.38 290l-14.27 4.64v-9.28z"/><path d="M1080.62 290l-18.5 6v-12zm-16.5 3.26l10.02-3.26-10.03-3.26z"/><path d="M960.62 290h101.76" stroke="#000" stroke-width="2" fill="none"/><path d="M960.62 291h-.92l-.08-1 .03-1h.97zM1077.38 290l-14.27 4.64v-9.28z"/><path d="M1080.62 290l-18.5 6v-12zm-16.5 3.26l10.02-3.26-10.03-3.26z"/><path d="M960.62 370h60v-80h41.76" stroke="#000" stroke-width="2" fill="none"/><path d="M960.62 371h-.92l-.08-1 .03-1h.97zM1077.38 290l-14.27 4.64v-9.28z"/><path d="M1080.62 290l-18.5 6v-12zm-16.5 3.26l10.02-3.26-10.03-3.26z"/><path d="M1082 20h160l-80 120z" stroke="#000" stroke-width="2" fill="#fff"/><g><use xlink:href="#C" transform="matrix(1,0,0,1,1087,25) translate(38.574999999999996 26.19999999999999)"/><use xlink:href="#D" transform="matrix(1,0,0,1,1087,25) translate(40.05 47.79999999999999)"/><use xlink:href="#E" transform="matrix(1,0,0,1,1087,25) translate(75 69.39999999999999)"/><use xlink:href="#F" transform="matrix(1,0,0,1,1087,25) translate(75 91)"/></g><path d="M1488 47c17.67 0 32 17.9 32 40s-14.33 40-32 40h-96c-17.67 0-32-17.9-32-40s14.33-40 32-40z" stroke="#000" stroke-width="2" fill="#fff"/><g><use xlink:href="#C" transform="matrix(1,0,0,1,1365,52) translate(38.574999999999996 27.799999999999997)"/><use xlink:href="#G" transform="matrix(1,0,0,1,1365,52) translate(22.074999999999996 49.4)"/><use xlink:href="#H" transform="matrix(1,0,0,1,1365,52) translate(96.975 49.4)"/></g><path d="M1488 250c17.67 0 32 17.9 32 40s-14.33 40-32 40h-96c-17.67 0-32-17.9-32-40s14.33-40 32-40z" stroke="#000" stroke-width="2" fill="#fff"/><g><use xlink:href="#I" transform="matrix(1,0,0,1,1365,255) translate(18.099999999999994 38.6)"/><use xlink:href="#J" transform="matrix(1,0,0,1,1365,255) translate(64.1 38.6)"/></g><path d="M1203.2 80h138.08" stroke="#000" stroke-width="2" fill="none"/><path d="M1203.2 81h-1.87l1.34-2h.53zM1356.28 80L1342 84.64v-9.28z"/><path d="M1359.5 80l-18.5 6V74zm-16.5 3.26l10.04-3.26-10.03-3.26z"/><path d="M1242.62 290h98.14" stroke="#000" stroke-width="2" fill="none"/><path d="M1242.62 291h-1v-2h1zM1355.76 290l-14.26 4.64v-9.28z"/><path d="M1359 290l-18.5 6v-12zm-16.5 3.26l10.03-3.26-10.03-3.26z"/><path d="M1161.62 199v-39.54" stroke="#000" stroke-width="2" fill="none"/><path d="M1162.62 200h-2v-1h2zM1166.25 158.73h-9.27l4.64-14.27z"/><path d="M1167.63 159.73h-12.03l6.02-18.5zm-9.27-2h6.5l-3.24-10.03z"/><defs><path d="M209 0H11v-25l151-195H24v-28h176v25L50-27h159V0" id="K"/><path d="M160-131c35 5 61 23 61 61C221 17 115-2 30 0v-248c76 3 177-17 177 60 0 33-19 50-47 57zm-97-11c50-1 110 9 110-42 0-47-63-36-110-37v79zm0 115c55-2 124 14 124-45 0-56-70-42-124-44v89" id="L"/><g id="a"><use transform="matrix(0.05,0,0,0.05,0,0)" xlink:href="#K"/><use transform="matrix(0.05,0,0,0.05,10.950000000000001,0)" xlink:href="#L"/></g><path d="M240 0l2-218c-23 76-54 145-80 218h-23L58-218 59 0H30v-248h44l77 211c21-75 51-140 76-211h43V0h-30" id="M"/><path d="M30 0v-248h187v28H63v79h144v27H63v87h162V0H30" id="N"/><path d="M30-248c118-7 216 8 213 122C240-48 200 0 122 0H30v-248zM63-27c89 8 146-16 146-99s-60-101-146-95v194" id="O"/><g id="b"><use transform="matrix(0.05,0,0,0.05,0,0)" xlink:href="#M"/><use transform="matrix(0.05,0,0,0.05,14.950000000000001,0)" xlink:href="#N"/><use transform="matrix(0.05,0,0,0.05,26.950000000000003,0)" xlink:href="#O"/></g><path d="M194 0L95-120 63-95V0H30v-248h33v124l119-124h40L117-140 236 0h-42" id="P"/><path d="M117-194c89-4 53 116 60 194h-32v-121c0-31-8-49-39-48C34-167 62-67 57 0H25l-1-190h30c1 10-1 24 2 32 11-22 29-35 61-36" id="Q"/><path d="M100-194c62-1 85 37 85 99 1 63-27 99-86 99S16-35 15-95c0-66 28-99 85-99zM99-20c44 1 53-31 53-75 0-43-8-75-51-75s-53 32-53 75 10 74 51 75" id="R"/><path d="M206 0h-36l-40-164L89 0H53L-1-190h32L70-26l43-164h34l41 164 42-164h31" id="S"/><path d="M24 0v-261h32V0H24" id="T"/><path d="M100-194c63 0 86 42 84 106H49c0 40 14 67 53 68 26 1 43-12 49-29l28 8c-11 28-37 45-77 45C44 4 14-33 15-96c1-61 26-98 85-98zm52 81c6-60-76-77-97-28-3 7-6 17-6 28h103" id="U"/><path d="M85-194c31 0 48 13 60 33l-1-100h32l1 261h-30c-2-10 0-23-3-31C134-8 116 4 85 4 32 4 16-35 15-94c0-66 23-100 70-100zm9 24c-40 0-46 34-46 75 0 40 6 74 45 74 42 0 51-32 51-76 0-42-9-74-50-73" id="V"/><path d="M177-190C167-65 218 103 67 71c-23-6-38-20-44-43l32-5c15 47 100 32 89-28v-30C133-14 115 1 83 1 29 1 15-40 15-95c0-56 16-97 71-98 29-1 48 16 59 35 1-10 0-23 2-32h30zM94-22c36 0 50-32 50-73 0-42-14-75-50-75-39 0-46 34-46 75s6 73 46 73" id="W"/><g id="c"><use transform="matrix(0.05,0,0,0.05,0,0)" xlink:href="#P"/><use transform="matrix(0.05,0,0,0.05,12,0)" xlink:href="#Q"/><use transform="matrix(0.05,0,0,0.05,22,0)" xlink:href="#R"/><use transform="matrix(0.05,0,0,0.05,32,0)" xlink:href="#S"/><use transform="matrix(0.05,0,0,0.05,44.95,0)" xlink:href="#T"/><use transform="matrix(0.05,0,0,0.05,48.900000000000006,0)" xlink:href="#U"/><use transform="matrix(0.05,0,0,0.05,58.900000000000006,0)" xlink:href="#V"/><use transform="matrix(0.05,0,0,0.05,68.9,0)" xlink:href="#W"/><use transform="matrix(0.05,0,0,0.05,78.9,0)" xlink:href="#U"/></g><path d="M108 0H70L1-190h34L89-25l56-165h34" id="X"/><path d="M24-231v-30h32v30H24zM24 0v-190h32V0H24" id="Y"/><path d="M114-163C36-179 61-72 57 0H25l-1-190h30c1 12-1 29 2 39 6-27 23-49 58-41v29" id="Z"/><path d="M210-169c-67 3-38 105-44 169h-31v-121c0-29-5-50-35-48C34-165 62-65 56 0H25l-1-190h30c1 10-1 24 2 32 10-44 99-50 107 0 11-21 27-35 58-36 85-2 47 119 55 194h-31v-121c0-29-5-49-35-48" id="aa"/><path d="M59-47c-2 24 18 29 38 22v24C64 9 27 4 27-40v-127H5v-23h24l9-43h21v43h35v23H59v120" id="ab"/><g id="d"><use transform="matrix(0.05,0,0,0.05,0,0)" xlink:href="#N"/><use transform="matrix(0.05,0,0,0.05,12,0)" xlink:href="#Q"/><use transform="matrix(0.05,0,0,0.05,22,0)" xlink:href="#X"/><use transform="matrix(0.05,0,0,0.05,31,0)" xlink:href="#Y"/><use transform="matrix(0.05,0,0,0.05,34.95,0)" xlink:href="#Z"/><use transform="matrix(0.05,0,0,0.05,40.900000000000006,0)" xlink:href="#R"/><use transform="matrix(0.05,0,0,0.05,50.900000000000006,0)" xlink:href="#Q"/><use transform="matrix(0.05,0,0,0.05,60.900000000000006,0)" xlink:href="#aa"/><use transform="matrix(0.05,0,0,0.05,75.85000000000001,0)" xlink:href="#U"/><use transform="matrix(0.05,0,0,0.05,85.85000000000001,0)" xlink:href="#Q"/><use transform="matrix(0.05,0,0,0.05,95.85000000000001,0)" xlink:href="#ab"/></g><path d="M30 0v-248h33v221h125V0H30" id="ac"/><path d="M33 0v-248h34V0H33" id="ad"/><path d="M137 0h-34L2-248h35l83 218 83-218h36" id="ae"/><path d="M140-251c81 0 123 46 123 126C263-46 219 4 140 4 59 4 17-45 17-125s42-126 123-126zm0 227c63 0 89-41 89-101s-29-99-89-99c-61 0-89 39-89 99S79-25 140-24" id="af"/><g id="f"><use transform="matrix(0.05,0,0,0.05,0,0)" xlink:href="#ac"/><use transform="matrix(0.05,0,0,0.05,10,0)" xlink:href="#ad"/><use transform="matrix(0.05,0,0,0.05,15,0)" xlink:href="#ae"/><use transform="matrix(0.05,0,0,0.05,27,0)" xlink:href="#ad"/><use transform="matrix(0.05,0,0,0.05,32,0)" xlink:href="#ae"/><use transform="matrix(0.05,0,0,0.05,44,0)" xlink:href="#af"/></g><path d="M96-169c-40 0-48 33-48 73s9 75 48 75c24 0 41-14 43-38l32 2c-6 37-31 61-74 61-59 0-76-41-82-99-10-93 101-131 147-64 4 7 5 14 7 22l-32 3c-4-21-16-35-41-35" id="ag"/><path d="M115-194c55 1 70 41 70 98S169 2 115 4C84 4 66-9 55-30l1 105H24l-1-265h31l2 30c10-21 28-34 59-34zm-8 174c40 0 45-34 45-75s-6-73-45-74c-42 0-51 32-51 76 0 43 10 73 51 73" id="ah"/><path d="M84 4C-5 8 30-112 23-190h32v120c0 31 7 50 39 49 72-2 45-101 50-169h31l1 190h-30c-1-10 1-25-2-33-11 22-28 36-60 37" id="ai"/><path d="M135-143c-3-34-86-38-87 0 15 53 115 12 119 90S17 21 10-45l28-5c4 36 97 45 98 0-10-56-113-15-118-90-4-57 82-63 122-42 12 7 21 19 24 35" id="aj"/><g id="g"><use transform="matrix(0.05,0,0,0.05,0,0)" xlink:href="#ag"/><use transform="matrix(0.05,0,0,0.05,9,0)" xlink:href="#R"/><use transform="matrix(0.05,0,0,0.05,19,0)" xlink:href="#Z"/><use transform="matrix(0.05,0,0,0.05,24.95,0)" xlink:href="#ah"/><use transform="matrix(0.05,0,0,0.05,34.95,0)" xlink:href="#ai"/><use transform="matrix(0.05,0,0,0.05,44.95,0)" xlink:href="#aj"/></g><path d="M212-179c-10-28-35-45-73-45-59 0-87 40-87 99 0 60 29 101 89 101 43 0 62-24 78-52l27 14C228-24 195 4 139 4 59 4 22-46 18-125c-6-104 99-153 187-111 19 9 31 26 39 46" id="ak"/><path d="M16-82v-28h88v28H16" id="al"/><g id="h"><use transform="matrix(0.05,0,0,0.05,0,0)" xlink:href="#ak"/><use transform="matrix(0.05,0,0,0.05,12.950000000000001,0)" xlink:href="#R"/><use transform="matrix(0.05,0,0,0.05,22.950000000000003,0)" xlink:href="#al"/><use transform="matrix(0.05,0,0,0.05,28.900000000000002,0)" xlink:href="#af"/><use transform="matrix(0.05,0,0,0.05,42.900000000000006,0)" xlink:href="#ag"/><use transform="matrix(0.05,0,0,0.05,51.900000000000006,0)" xlink:href="#ag"/><use transform="matrix(0.05,0,0,0.05,60.900000000000006,0)" xlink:href="#ai"/><use transform="matrix(0.05,0,0,0.05,70.9,0)" xlink:href="#Z"/><use transform="matrix(0.05,0,0,0.05,76.85000000000001,0)" xlink:href="#Z"/><use transform="matrix(0.05,0,0,0.05,82.80000000000001,0)" xlink:href="#U"/><use transform="matrix(0.05,0,0,0.05,92.80000000000001,0)" xlink:href="#Q"/><use transform="matrix(0.05,0,0,0.05,102.80000000000001,0)" xlink:href="#ag"/><use transform="matrix(0.05,0,0,0.05,111.80000000000001,0)" xlink:href="#Y"/><use transform="matrix(0.05,0,0,0.05,115.75,0)" xlink:href="#Q"/><use transform="matrix(0.05,0,0,0.05,125.75,0)" xlink:href="#W"/></g><path d="M190 0L58-211 59 0H30v-248h39L202-35l-2-213h31V0h-41" id="am"/><g id="i"><use transform="matrix(0.05,0,0,0.05,0,0)" xlink:href="#am"/><use transform="matrix(0.05,0,0,0.05,12.950000000000001,0)" xlink:href="#U"/><use transform="matrix(0.05,0,0,0.05,22.950000000000003,0)" xlink:href="#ai"/><use transform="matrix(0.05,0,0,0.05,32.95,0)" xlink:href="#Z"/><use transform="matrix(0.05,0,0,0.05,38.900000000000006,0)" xlink:href="#R"/></g><g id="j"><use transform="matrix(0.05,0,0,0.05,0,0)" xlink:href="#O"/><use transform="matrix(0.05,0,0,0.05,12.950000000000001,0)" xlink:href="#Z"/><use transform="matrix(0.05,0,0,0.05,18.900000000000002,0)" xlink:href="#ai"/><use transform="matrix(0.05,0,0,0.05,28.900000000000002,0)" xlink:href="#W"/></g><path d="M141-36C126-15 110 5 73 4 37 3 15-17 15-53c-1-64 63-63 125-63 3-35-9-54-41-54-24 1-41 7-42 31l-33-3c5-37 33-52 76-52 45 0 72 20 72 64v82c-1 20 7 32 28 27v20c-31 9-61-2-59-35zM48-53c0 20 12 33 32 33 41-3 63-29 60-74-43 2-92-5-92 41" id="an"/><g id="k"><use transform="matrix(0.05,0,0,0.05,0,0)" xlink:href="#am"/><use transform="matrix(0.05,0,0,0.05,12.950000000000001,0)" xlink:href="#an"/><use transform="matrix(0.05,0,0,0.05,22.950000000000003,0)" xlink:href="#aa"/><use transform="matrix(0.05,0,0,0.05,37.900000000000006,0)" xlink:href="#U"/><use transform="matrix(0.05,0,0,0.05,47.900000000000006,0)" xlink:href="#aj"/></g><path d="M185-189c-5-48-123-54-124 2 14 75 158 14 163 119 3 78-121 87-175 55-17-10-28-26-33-46l33-7c5 56 141 63 141-1 0-78-155-14-162-118-5-82 145-84 179-34 5 7 8 16 11 25" id="ao"/><path d="M101-234c-31-9-42 10-38 44h38v23H63V0H32v-167H5v-23h27c-7-52 17-82 69-68v24" id="ap"/><g id="l"><use transform="matrix(0.05,0,0,0.05,0,0)" xlink:href="#ao"/><use transform="matrix(0.05,0,0,0.05,12,0)" xlink:href="#ab"/><use transform="matrix(0.05,0,0,0.05,17,0)" xlink:href="#an"/><use transform="matrix(0.05,0,0,0.05,27,0)" xlink:href="#Q"/><use transform="matrix(0.05,0,0,0.05,37,0)" xlink:href="#V"/><use transform="matrix(0.05,0,0,0.05,47,0)" xlink:href="#R"/><use transform="matrix(0.05,0,0,0.05,57,0)" xlink:href="#ap"/><use transform="matrix(0.05,0,0,0.05,61.650000000000006,0)" xlink:href="#ap"/></g><path d="M205 0l-28-72H64L36 0H1l101-248h38L239 0h-34zm-38-99l-47-123c-12 45-31 82-46 123h93" id="aq"/><g id="m"><use transform="matrix(0.05,0,0,0.05,0,0)" xlink:href="#aq"/><use transform="matrix(0.05,0,0,0.05,12,0)" xlink:href="#Q"/><use transform="matrix(0.05,0,0,0.05,22,0)" xlink:href="#Q"/><use transform="matrix(0.05,0,0,0.05,32,0)" xlink:href="#R"/><use transform="matrix(0.05,0,0,0.05,42,0)" xlink:href="#ab"/><use transform="matrix(0.05,0,0,0.05,47,0)" xlink:href="#an"/><use transform="matrix(0.05,0,0,0.05,57,0)" xlink:href="#ab"/><use transform="matrix(0.05,0,0,0.05,62,0)" xlink:href="#Y"/><use transform="matrix(0.05,0,0,0.05,65.95,0)" xlink:href="#R"/><use transform="matrix(0.05,0,0,0.05,75.95,0)" xlink:href="#Q"/><use transform="matrix(0.05,0,0,0.05,85.95,0)" xlink:href="#aj"/></g><g id="n"><use transform="matrix(0.05,0,0,0.05,0,0)" xlink:href="#ae"/><use transform="matrix(0.05,0,0,0.05,11,0)" xlink:href="#U"/><use transform="matrix(0.05,0,0,0.05,21,0)" xlink:href="#ag"/><use transform="matrix(0.05,0,0,0.05,30,0)" xlink:href="#ab"/><use transform="matrix(0.05,0,0,0.05,35,0)" xlink:href="#R"/><use transform="matrix(0.05,0,0,0.05,45,0)" xlink:href="#Z"/></g><path d="M197 0v-115H63V0H30v-248h33v105h134v-105h34V0h-34" id="ar"/><g id="o"><use transform="matrix(0.05,0,0,0.05,0,0)" xlink:href="#M"/><use transform="matrix(0.05,0,0,0.05,14.950000000000001,0)" xlink:href="#U"/><use transform="matrix(0.05,0,0,0.05,24.950000000000003,0)" xlink:href="#ao"/><use transform="matrix(0.05,0,0,0.05,36.95,0)" xlink:href="#ar"/></g><path d="M179-190L93 31C79 59 56 82 12 73V49c39 6 53-20 64-50L1-190h34L92-34l54-156h33" id="as"/><g id="p"><use transform="matrix(0.05,0,0,0.05,0,0)" xlink:href="#N"/><use transform="matrix(0.05,0,0,0.05,12,0)" xlink:href="#ah"/><use transform="matrix(0.05,0,0,0.05,22,0)" xlink:href="#Y"/><use transform="matrix(0.05,0,0,0.05,25.950000000000003,0)" xlink:href="#T"/><use transform="matrix(0.05,0,0,0.05,29.899999999999995,0)" xlink:href="#U"/><use transform="matrix(0.05,0,0,0.05,39.9,0)" xlink:href="#ah"/><use transform="matrix(0.05,0,0,0.05,49.9,0)" xlink:href="#aj"/><use transform="matrix(0.05,0,0,0.05,58.900000000000006,0)" xlink:href="#as"/></g><g id="q"><use transform="matrix(0.05,0,0,0.05,0,0)" xlink:href="#ae"/><use transform="matrix(0.05,0,0,0.05,11,0)" xlink:href="#U"/><use transform="matrix(0.05,0,0,0.05,21,0)" xlink:href="#ag"/><use transform="matrix(0.05,0,0,0.05,30,0)" xlink:href="#ab"/><use transform="matrix(0.05,0,0,0.05,35,0)" xlink:href="#R"/><use transform="matrix(0.05,0,0,0.05,45,0)" xlink:href="#Z"/></g><g id="r"><use transform="matrix(0.05,0,0,0.05,0,0)" xlink:href="#N"/><use transform="matrix(0.05,0,0,0.05,12,0)" xlink:href="#ah"/><use transform="matrix(0.05,0,0,0.05,22,0)" xlink:href="#ao"/><use transform="matrix(0.05,0,0,0.05,34,0)" xlink:href="#af"/></g><g id="s"><use transform="matrix(0.05,0,0,0.05,0,0)" xlink:href="#N"/><use transform="matrix(0.05,0,0,0.05,12,0)" xlink:href="#ao"/><use transform="matrix(0.05,0,0,0.05,24,0)" xlink:href="#ao"/><use transform="matrix(0.05,0,0,0.05,36,0)" xlink:href="#af"/></g><path d="M30-248c87 1 191-15 191 75 0 78-77 80-158 76V0H30v-248zm33 125c57 0 124 11 124-50 0-59-68-47-124-48v98" id="at"/><path d="M127-220V0H93v-220H8v-28h204v28h-85" id="au"/><g id="t"><use transform="matrix(0.05,0,0,0.05,0,0)" xlink:href="#N"/><use transform="matrix(0.05,0,0,0.05,12,0)" xlink:href="#at"/><use transform="matrix(0.05,0,0,0.05,24,0)" xlink:href="#ad"/><use transform="matrix(0.05,0,0,0.05,29,0)" xlink:href="#ac"/><use transform="matrix(0.05,0,0,0.05,39,0)" xlink:href="#af"/><use transform="matrix(0.05,0,0,0.05,53,0)" xlink:href="#am"/><use transform="matrix(0.05,0,0,0.05,65.95,0)" xlink:href="#au"/></g><path d="M63-220v92h138v28H63V0H30v-248h175v28H63" id="av"/><path d="M145-31C134-9 116 4 85 4 32 4 16-35 15-94c0-59 17-99 70-100 32-1 48 14 60 33 0-11-1-24 2-32h30l-1 268h-32zM93-21c41 0 51-33 51-76s-8-73-50-73c-40 0-46 35-46 75s5 74 45 74" id="aw"/><g id="u"><use transform="matrix(0.05,0,0,0.05,0,0)" xlink:href="#av"/><use transform="matrix(0.05,0,0,0.05,10.950000000000001,0)" xlink:href="#Z"/><use transform="matrix(0.05,0,0,0.05,16.900000000000002,0)" xlink:href="#U"/><use transform="matrix(0.05,0,0,0.05,26.900000000000002,0)" xlink:href="#aw"/><use transform="matrix(0.05,0,0,0.05,36.900000000000006,0)" xlink:href="#ai"/><use transform="matrix(0.05,0,0,0.05,46.900000000000006,0)" xlink:href="#U"/><use transform="matrix(0.05,0,0,0.05,56.900000000000006,0)" xlink:href="#Q"/><use transform="matrix(0.05,0,0,0.05,66.9,0)" xlink:href="#ag"/><use transform="matrix(0.05,0,0,0.05,75.9,0)" xlink:href="#as"/></g><g id="v"><use transform="matrix(0.05,0,0,0.05,0,0)" xlink:href="#O"/><use transform="matrix(0.05,0,0,0.05,12.950000000000001,0)" xlink:href="#Y"/><use transform="matrix(0.05,0,0,0.05,16.900000000000002,0)" xlink:href="#ag"/><use transform="matrix(0.05,0,0,0.05,25.900000000000002,0)" xlink:href="#ab"/><use transform="matrix(0.05,0,0,0.05,30.900000000000002,0)" xlink:href="#Y"/><use transform="matrix(0.05,0,0,0.05,34.85,0)" xlink:href="#R"/><use transform="matrix(0.05,0,0,0.05,44.85,0)" xlink:href="#Q"/><use transform="matrix(0.05,0,0,0.05,54.85,0)" xlink:href="#an"/><use transform="matrix(0.05,0,0,0.05,64.85,0)" xlink:href="#Z"/><use transform="matrix(0.05,0,0,0.05,70.8,0)" xlink:href="#as"/></g><g id="w"><use transform="matrix(0.05,0,0,0.05,0,0)" xlink:href="#aq"/><use transform="matrix(0.05,0,0,0.05,12,0)" xlink:href="#W"/><use transform="matrix(0.05,0,0,0.05,22,0)" xlink:href="#W"/><use transform="matrix(0.05,0,0,0.05,32,0)" xlink:href="#Z"/><use transform="matrix(0.05,0,0,0.05,37.95,0)" xlink:href="#U"/><use transform="matrix(0.05,0,0,0.05,47.95,0)" xlink:href="#W"/><use transform="matrix(0.05,0,0,0.05,57.95,0)" xlink:href="#an"/><use transform="matrix(0.05,0,0,0.05,67.95,0)" xlink:href="#ab"/><use transform="matrix(0.05,0,0,0.05,72.95,0)" xlink:href="#Y"/><use transform="matrix(0.05,0,0,0.05,76.9,0)" xlink:href="#R"/><use transform="matrix(0.05,0,0,0.05,86.9,0)" xlink:href="#Q"/></g><path d="M106-169C34-169 62-67 57 0H25v-261h32l-1 103c12-21 28-36 61-36 89 0 53 116 60 194h-32v-121c2-32-8-49-39-48" id="ax"/><g id="x"><use transform="matrix(0.05,0,0,0.05,0,0)" xlink:href="#S"/><use transform="matrix(0.05,0,0,0.05,12.950000000000001,0)" xlink:href="#Y"/><use transform="matrix(0.05,0,0,0.05,16.900000000000002,0)" xlink:href="#ab"/><use transform="matrix(0.05,0,0,0.05,21.900000000000002,0)" xlink:href="#ax"/></g><g id="y"><use transform="matrix(0.05,0,0,0.05,0,0)" xlink:href="#ak"/><use transform="matrix(0.05,0,0,0.05,12.950000000000001,0)" xlink:href="#Z"/><use transform="matrix(0.05,0,0,0.05,18.900000000000002,0)" xlink:href="#R"/><use transform="matrix(0.05,0,0,0.05,28.900000000000002,0)" xlink:href="#aj"/><use transform="matrix(0.05,0,0,0.05,37.900000000000006,0)" xlink:href="#aj"/></g><g id="z"><use transform="matrix(0.05,0,0,0.05,0,0)" xlink:href="#N"/><use transform="matrix(0.05,0,0,0.05,12,0)" xlink:href="#Q"/><use transform="matrix(0.05,0,0,0.05,22,0)" xlink:href="#ab"/><use transform="matrix(0.05,0,0,0.05,27,0)" xlink:href="#Z"/><use transform="matrix(0.05,0,0,0.05,32.95,0)" xlink:href="#R"/><use transform="matrix(0.05,0,0,0.05,42.95,0)" xlink:href="#ah"/><use transform="matrix(0.05,0,0,0.05,52.95,0)" xlink:href="#as"/></g><g id="A"><use transform="matrix(0.05,0,0,0.05,0,0)" xlink:href="#M"/><use transform="matrix(0.05,0,0,0.05,14.950000000000001,0)" xlink:href="#R"/><use transform="matrix(0.05,0,0,0.05,24.950000000000003,0)" xlink:href="#Q"/><use transform="matrix(0.05,0,0,0.05,34.95,0)" xlink:href="#ab"/><use transform="matrix(0.05,0,0,0.05,39.95,0)" xlink:href="#U"/></g><g id="B"><use transform="matrix(0.05,0,0,0.05,0,0)" xlink:href="#ak"/><use transform="matrix(0.05,0,0,0.05,12.950000000000001,0)" xlink:href="#an"/><use transform="matrix(0.05,0,0,0.05,22.950000000000003,0)" xlink:href="#Z"/><use transform="matrix(0.05,0,0,0.05,28.900000000000002,0)" xlink:href="#T"/><use transform="matrix(0.05,0,0,0.05,32.85,0)" xlink:href="#R"/></g><g id="C"><use transform="matrix(0.05,0,0,0.05,0,0)" xlink:href="#au"/><use transform="matrix(0.05,0,0,0.05,8.950000000000001,0)" xlink:href="#an"/><use transform="matrix(0.05,0,0,0.05,18.950000000000003,0)" xlink:href="#Q"/><use transform="matrix(0.05,0,0,0.05,28.950000000000003,0)" xlink:href="#Y"/><use transform="matrix(0.05,0,0,0.05,32.900000000000006,0)" xlink:href="#aa"/><use transform="matrix(0.05,0,0,0.05,47.85000000000001,0)" xlink:href="#R"/><use transform="matrix(0.05,0,0,0.05,57.85,0)" xlink:href="#ab"/><use transform="matrix(0.05,0,0,0.05,62.85,0)" xlink:href="#R"/></g><g id="D"><use transform="matrix(0.05,0,0,0.05,0,0)" xlink:href="#O"/><use transform="matrix(0.05,0,0,0.05,12.950000000000001,0)" xlink:href="#Y"/><use transform="matrix(0.05,0,0,0.05,16.900000000000002,0)" xlink:href="#aj"/><use transform="matrix(0.05,0,0,0.05,25.900000000000002,0)" xlink:href="#ab"/><use transform="matrix(0.05,0,0,0.05,30.900000000000002,0)" xlink:href="#an"/><use transform="matrix(0.05,0,0,0.05,40.900000000000006,0)" xlink:href="#Q"/><use transform="matrix(0.05,0,0,0.05,50.900000000000006,0)" xlink:href="#ag"/><use transform="matrix(0.05,0,0,0.05,59.900000000000006,0)" xlink:href="#U"/></g><g id="G"><use transform="matrix(0.05,0,0,0.05,0,0)" xlink:href="#O"/><use transform="matrix(0.05,0,0,0.05,12.950000000000001,0)" xlink:href="#Y"/><use transform="matrix(0.05,0,0,0.05,16.900000000000002,0)" xlink:href="#aj"/><use transform="matrix(0.05,0,0,0.05,25.900000000000002,0)" xlink:href="#ab"/><use transform="matrix(0.05,0,0,0.05,30.900000000000002,0)" xlink:href="#an"/><use transform="matrix(0.05,0,0,0.05,40.900000000000006,0)" xlink:href="#Q"/><use transform="matrix(0.05,0,0,0.05,50.900000000000006,0)" xlink:href="#ag"/><use transform="matrix(0.05,0,0,0.05,59.900000000000006,0)" xlink:href="#U"/></g><g id="H"><use transform="matrix(0.05,0,0,0.05,0,0)" xlink:href="#at"/><use transform="matrix(0.05,0,0,0.05,12,0)" xlink:href="#T"/><use transform="matrix(0.05,0,0,0.05,15.949999999999998,0)" xlink:href="#R"/><use transform="matrix(0.05,0,0,0.05,25.950000000000003,0)" xlink:href="#ab"/></g><g id="I"><use transform="matrix(0.05,0,0,0.05,0,0)" xlink:href="#ae"/><use transform="matrix(0.05,0,0,0.05,11,0)" xlink:href="#U"/><use transform="matrix(0.05,0,0,0.05,21,0)" xlink:href="#Q"/><use transform="matrix(0.05,0,0,0.05,31,0)" xlink:href="#Q"/></g><g id="J"><use transform="matrix(0.05,0,0,0.05,0,0)" xlink:href="#O"/><use transform="matrix(0.05,0,0,0.05,12.950000000000001,0)" xlink:href="#Y"/><use transform="matrix(0.05,0,0,0.05,16.900000000000002,0)" xlink:href="#an"/><use transform="matrix(0.05,0,0,0.05,26.900000000000002,0)" xlink:href="#W"/><use transform="matrix(0.05,0,0,0.05,36.900000000000006,0)" xlink:href="#Z"/><use transform="matrix(0.05,0,0,0.05,42.85000000000001,0)" xlink:href="#an"/><use transform="matrix(0.05,0,0,0.05,52.85,0)" xlink:href="#aa"/></g></defs></g></svg>